<svg width="31" height="23" viewBox="0 0 31 23" fill="none" xmlns="http://www.w3.org/2000/svg">
<path fill-rule="evenodd" clip-rule="evenodd" d="M1.81631 5.05594C1.81625 5.90429 2.1457 6.71793 2.73218 7.31784C3.31866 7.91776 4.11413 8.25482 4.94359 8.25487C5.77305 8.25492 6.56856 7.91796 7.15512 7.31812C7.74167 6.71828 8.07123 5.90469 8.07128 5.05633C8.07134 4.20798 7.74189 3.39435 7.15541 2.79443C6.56893 2.19451 5.77346 1.85745 4.944 1.8574C4.11454 1.85735 3.31903 2.19431 2.73247 2.79415C2.14591 3.39399 1.81636 4.20758 1.81631 5.05594ZM4.94347 10.1122C3.88506 10.112 2.85464 9.76438 2.00383 9.12047C1.15302 8.47655 0.526744 7.57034 0.217133 6.53516C-0.0924768 5.49998 -0.0690685 4.3905 0.283915 3.36995C0.636897 2.34939 1.30082 1.47165 2.17799 0.865868C3.05517 0.260082 4.09928 -0.0417643 5.15672 0.00473884C6.21416 0.051242 7.22909 0.443639 8.05219 1.1242C8.87528 1.80476 9.46308 2.73754 9.72911 3.78532C9.99513 4.8331 9.92533 5.94054 9.52998 6.94471L11.475 8.27386C11.4607 8.32039 11.4473 8.36717 11.4346 8.41419L11.1238 9.5492L10.4115 10.0362L8.406 8.66577C7.5141 9.55929 6.29132 10.1123 4.94347 10.1122ZM1.81552 17.4691C1.81557 16.6207 2.14513 15.8071 2.73168 15.2073C3.31824 14.6075 4.11375 14.2705 4.94321 14.2706C5.77267 14.2706 6.56814 14.6077 7.15462 15.2076C7.7411 15.8075 8.07055 16.6211 8.07049 17.4695C8.07044 18.3178 7.74089 19.1314 7.15433 19.7313C6.56777 20.3311 5.77226 20.6681 4.9428 20.668C4.11334 20.668 3.31787 20.3309 2.73139 19.731C2.14491 19.1311 1.81546 18.3174 1.81552 17.4691ZM4.94333 12.4132C3.88584 12.4133 2.85624 12.7602 2.00575 13.4029C1.15526 14.0457 0.528707 14.9505 0.218125 15.9844C-0.0924557 17.0182 -0.0706985 18.1267 0.280201 19.147C0.631101 20.1673 1.29265 21.0456 2.16767 21.653C3.0427 22.2603 4.08509 22.5646 5.14172 22.5213C6.19836 22.4779 7.21356 22.0892 8.03821 21.4121C8.86285 20.735 9.45348 19.8053 9.72334 18.7595C9.9932 17.7138 9.92807 16.607 9.53751 15.6019L30.1657 1.5361L28.2468 1.69791C25.5408 1.98897 22.9203 2.83678 20.543 4.19037L14.3382 7.7189C14.1052 7.85202 13.9003 8.03109 13.7354 8.24575C13.5706 8.46041 13.449 8.70639 13.3777 8.96945L12.8671 10.8391L8.42181 13.8787C7.49745 12.9389 6.24669 12.4119 4.94333 12.4132ZM14.3135 14.818L14.3377 14.8325L20.5421 18.3618C22.9193 19.7157 25.5396 20.5638 28.2456 20.8552L29.7357 20.8552L27.9685 19.4606L25.3464 17.7763L17.6752 12.5172L14.3135 14.818Z" fill="#2C78B2"/>
</svg>
